<svg xmlns="http://www.w3.org/2000/svg" viewBox="0 0 209 206.6"><defs><style>.cls-1{fill:#acb6ad;}.cls-2{fill:#e8e7e3;stroke:#1d1d1b;stroke-miterlimit:10;stroke-width:0.25px;}</style></defs><title>Recurso 2</title><g id="Capa_2" data-name="Capa 2"><g id="Capa_1-2" data-name="Capa 1"><path class="cls-1" d="M45.6,184.86c26.23,19.95,60.4,28.22,94.16,16.06,33.73-12,67.19-44,69.15-77s-27.59-66.78-62.23-93.21C112,4.47,73.21-7.7,44.87,5.15,16.68,18.21-.86,56.3,0,94.7A115.31,115.31,0,0,0,45.6,184.86Z"/><path class="cls-2" d="M72,74.26c.49.36.25,1.44-.48,2.4-1.08,1.2-6.24,1.57-22.23,1.57-19.94,0-23.43-.61-21.51-3.61C28.62,73.3,70.68,72.94,72,74.26Z"/><path class="cls-2" d="M64.19,88.68c-.36,1.92-2,2.16-14.78,2.16S35,90.6,34.63,88.68s1-2,14.78-2S64.55,86.88,64.19,88.68Z"/><path class="cls-2" d="M158.65,83.63l-10.82-.36c-6-.12-11.18,0-11.66.48s-.84,5.89-.84,12.14v11.18h15.5c8.66,0,15.87-.37,16.23-1s-1.44-5.76-4-11.65Zm-7.94,19.59-10-.36-.36-7.57L140,87.84h15.26l2.64,6.37C161.89,103.7,162,103.58,150.71,103.22Z"/><path class="cls-2" d="M149.75,137.83c-1.32,1.44-1.2,2.16.36,3.72,2.65,2.77,6.25,0,4.33-3.36C153,135.42,151.8,135.3,149.75,137.83Z"/><path class="cls-2" d="M78.13,137.59c-.84,2.16.12,5.53,1.57,5.53a8.31,8.31,0,0,0,2.76-1.21c1.32-.84,1.44-1.68.48-3.24C81.14,135.79,79,135.3,78.13,137.59Z"/><path class="cls-2" d="M170.78,92.89c-3-7.09-6.61-13.82-7.93-15-2.16-1.68-4.93-2-16.1-2H133.29l-.6-6c-.36-3.24-1.32-6.73-2.16-7.81-1.33-1.56-7.57-1.8-46.39-1.8-24.75,0-45.06.48-45.42,1.08-2,3.25,3.84,3.73,45.66,4l43.14.36.36,35.69.24,35.81h-17.9c-16.83,0-18-.12-18.75-2.41-2.76-8.89-17.3-9.49-21.75-1-1.68,3.37-2.16,3.49-9.25,3.13L53,136.51l-.36-18.39L52.3,99.74,40,100.1c-10,.24-12.26.72-12.26,2.16s2,1.92,10,2.16l9.85.36v16.1c0,20.07.6,21,12.62,21,7.33,0,7.81.12,9.61,3.61,2.28,4.33,5.17,6,10.58,6,4.56,0,9.85-3.49,11-7.21.72-2.29,1.92-2.41,24.64-2.41s23.91.12,24.63,2.41c1.2,3.72,6.49,7.21,11.06,7.21,5.4,0,8.29-1.68,10.57-6,1.56-2.89,2.64-3.61,5.89-3.61,7,0,7.93-2.28,7.93-20.3V105.74ZM85.34,144.8a7.56,7.56,0,0,1-4.92,1.92,7.26,7.26,0,0,1-5.53-12.26c2.4-2.64,7.93-2.88,10.45-.24C87.75,136.63,87.75,142.39,85.34,144.8Zm61.53,0c-2.52-2.41-2.4-7.57.12-10.34,4.09-4.56,12.38-1.32,12.38,4.81C159.37,145.64,151.2,149.24,146.87,144.8Zm21.51-26.92c-3.37,0-5.41,3-5.41,8.29,0,4.09,2.65,7.33,6.13,7.33a2.15,2.15,0,0,1,2.28,1.8c0,1.21-1.2,1.81-3.6,1.81-2.65,0-4-.84-5.29-3.37-4.45-8.53-19-7.81-21.75,1-.48,1.69-1.8,2.41-4.33,2.41h-3.48V80.63h13.82c7.57,0,13.82.12,13.82.36S163,86.88,166,93.73c4,9.13,5.4,14.06,5.4,18.26C171.38,117.4,171.14,117.88,168.38,117.88Zm3,7.81c0,1.92-.72,3-1.8,3s-1.8-1.09-1.8-3,.72-3,1.8-3S171.38,123.77,171.38,125.69Z"/><path class="cls-2" d="M84.14,88.44c-.6-2.28-1.56-3-4.08-3-4.33,0-5.65,1.92-2.53,3.48,2.89,1.56,6.49,16.46,4.81,19.71-3.13,5.65,1.92,9.25,12.74,9.25,7.57,0,10.21-.84,10.21-3.12,0-1.33-2-1.69-8.89-1.69-4.93,0-9.37-.6-9.73-1.2s2.76-1.2,8.77-1.2c6.25,0,10-.48,10.69-1.56.6-.72,1.8-4.33,2.53-7.93,2-9.14,1.32-9.74-12.5-9.74C85.1,91.44,84.86,91.32,84.14,88.44Zm19.71,12.62-1.2,4.8H95.56c-3.85,0-7.21-.36-7.57-1a37.84,37.84,0,0,1-1.32-5.41l-.85-4.44h8.9c4.92,0,9.25.24,9.61.6S104.45,98.53,103.85,101.06Z"/><path class="cls-2" d="M117.43,88.32c-2.89-6.37-10.94-13.1-17.55-14.78-9.73-2.4-17.3-.72-24.63,5.65a25.54,25.54,0,0,0-9.61,20.67c0,23.19,26.91,35.81,44.46,20.78a31.73,31.73,0,0,0,7.33-9.25C120.31,105,120.31,94.69,117.43,88.32Zm-12.38,30.4c-10.69,7.09-26.44,3.13-32.2-8C66.6,98.41,72.12,83.75,85,78.23c5-2,14.9-.73,20.19,2.76C118.27,89.64,118.27,110.07,105.05,118.72Z"/></g></g></svg>