<svg xmlns="http://www.w3.org/2000/svg" viewBox="0 0 186.27 198.33"><defs><style>.cls-1{fill:#acb6ad;}.cls-2{fill:#e8e7e3;stroke:#1d1d1b;stroke-miterlimit:10;stroke-width:0.25px;}</style></defs><title>icono_cambio</title><g id="Capa_2" data-name="Capa 2"><g id="Capa_1-2" data-name="Capa 1"><path class="cls-1" d="M167.89,38.52c14.65,24,20.42,49.7,17.75,78.4-2.51,28.84-13.46,60.65-36.09,73.81-22.78,13.32-57.25,7.84-87.87-6.51S4.58,146.21.59,120s14.2-55.17,35.35-80.76C57.24,13.67,81.9-.15,105.87,0S153.1,14.41,167.89,38.52Z"/><path class="cls-2" d="M57.34,87.35c-.24-.84-1.69-1.33-3.14-1.21-3.38.49-3.26-1.08,1.21-9.42,5-9.18,14.73-18.36,24.88-23.19,7.73-3.62,8.94-3.87,22.22-3.87,13.65,0,14.14.13,22.95,4.47,13.89,6.89,23.92,18.85,29.36,35a3.08,3.08,0,0,0,2.65,2.18c1.69,0,1.94-.85,1.33-4.47C156,70.2,137.06,50.75,119.06,46.28c-9.9-2.53-15.7-3-24.28-1.93-20.53,2.42-40,17.51-46.86,36.36-1.57,4.59-2.78,5.55-4.11,3.38-1.09-1.69-3-1.45-3.74.48C39.22,86.87,44.54,95,46.83,95,49.61,95,57.94,88.92,57.34,87.35Z"/><path class="cls-2" d="M163.27,112.11c-1.69-2.78-3.74-5.07-4.47-5.07-3.14.12-10.51,5.56-10.51,7.73,0,1.81.61,2,3.14,1.45,2.78-.73,3-.6,2.3,1.93-4,12.93-16.07,26.45-29.23,32.74-7.73,3.62-8.94,3.86-22.23,3.86-13.65,0-14.13-.12-23-4.47-11.71-5.8-20.29-14.73-26-27-2.53-5.32-4.83-8.82-5.67-8.58C43.33,116.22,50.45,132,60,142.31c8.33,9.06,22.34,16.31,34.3,17.63,27.78,3.39,53.39-11.83,63.05-37.44,1.81-5.07,2.3-5.56,4.35-4.23C165.81,120.81,166.65,117.79,163.27,112.11Z"/><path class="cls-2" d="M118.58,68c-8-4.46-15.34-8.09-16.31-8.09s-9.66,4.71-19.44,10.51L65,80.83V101c0,24.4-1.33,22.35,22.22,34.3l16.31,8.22,12.44-6.28c18.36-9.55,23.19-12.57,24.76-15.83,1.09-1.93,1.57-9.18,1.57-21.26V81.67l-4.47-2.77C135.25,77.33,126.67,72.37,118.58,68Zm-30.32,5.2c2.66,0,34.67,18.6,34.18,19.81a1.71,1.71,0,0,1-2,1c-3.74-1-34.79-18.84-34.18-19.81A2.78,2.78,0,0,1,88.26,73.22ZM100.58,136c-1.57,0-27.3-13.65-29-15.34-1.33-1.33-1.81-5-1.81-15,0-7.25.36-13.17,1-13.17s7.37,3.51,15.34,7.74l14.49,7.6.36,14.14C101.06,129.75,100.94,136,100.58,136Zm-14-41.19c-9.18-4.71-16.79-9.06-16.79-9.66s2-2.42,4.59-4,5.07-2.9,5.68-2.78c2,.36,34.42,18.36,34.42,19.09,0,.36-2.53,1.81-5.55,3.26l-5.44,2.66ZM136,106.68l-.36,14.25-13.89,7.49c-7.61,4.23-14.37,7.61-14.86,7.61s-.72-6.4-.6-14.13l.36-14.14,4.83-2.77c2.66-1.45,5.2-2.78,5.8-2.78s.85,2.17.85,4.83c0,5.8,1.57,6.16,8.57,2.17,4.47-2.41,4.71-3,4.71-8.21,0-3,.61-6.16,1.45-7C135.85,91,136.34,92.91,136,106.68ZM124.5,98.22c1.69-.6,2.53,2.06,1.57,4.71a2.43,2.43,0,0,1-1.93,1.69C122.44,104.62,122.69,99,124.5,98.22ZM133,88.08c-3.26,1.69-4.1,1.32-20.29-7.73-9.3-5.2-17-9.91-17.15-10.39s1.09-1.81,3-3,3.5-2.06,3.62-2.06c1.45-.36,34.06,18.85,34.06,20.06C136.21,85.78,134.76,87.23,133,88.08Z"/></g></g></svg>