<svg xmlns="http://www.w3.org/2000/svg" viewBox="0 0 413.33 133.95"><defs><style>.cls-1{fill:#343a36;}.cls-2{fill:#fff;}</style></defs><title>icono_visa</title><g id="Capa_2" data-name="Capa 2"><g id="Layer_1" data-name="Layer 1"><polygon class="cls-1" points="35.44 20.08 65.11 132.03 99.54 132.03 153.12 2.38 118.19 2.38 84.44 90.41 70.57 21.52 35.44 20.08 35.44 20.08"/><polygon class="cls-1" points="166.17 1.9 145.59 132.03 178.13 132.03 199.17 1.9 166.17 1.9 166.17 1.9"/><path class="cls-1" d="M294.85,33l4.78-27.25A94.73,94.73,0,0,0,268.06,0c-17.23,0-54.54,11-54.54,43s46.4,33.49,46.4,51.18-41.61,15.8-54.06,4.33l-5.26,28.21S219.26,134,236,134s58.38-3.83,58.38-45.45c0-36.37-46.41-29.19-46.41-51.19,0,0,4.77-22,46.88-4.32Z"/><path class="cls-1" d="M292.45,132h35.88l6.23-18.66h44l3.67,18.5h31.1L384.79,3.35H356.08s-10.52,1.2-15.3,13.87C336.23,29.27,292.45,132,292.45,132Z"/><polygon class="cls-2" points="373.31 86.58 344.12 86.58 362.31 38.74 373.31 86.58 373.31 86.58"/><path class="cls-1" d="M80.81,72.38,70.57,21.52s-1.38-19.1-15-19.1H0V5.07s55,9.11,80.81,67.31Z"/></g></g></svg>