<svg xmlns="http://www.w3.org/2000/svg" viewBox="0 0 186.92 94.72"><defs><style>.cls-1{fill:#fff;}.cls-2{fill:#6d6d6d;}.cls-3{fill:#343a36;}</style></defs><title>icono_oxxo</title><g id="Capa_2" data-name="Capa 2"><g id="Capa_1-2" data-name="Capa 1"><path class="cls-1" d="M0,11.55A11.27,11.27,0,0,1,11.21.23H175.69A11.27,11.27,0,0,1,186.9,11.55V83.12a11.26,11.26,0,0,1-11.21,11.3H11.21A11.26,11.26,0,0,1,0,83.12Z"/><path class="cls-2" d="M.13,10.41A10.36,10.36,0,0,1,10.44,0H176.62a10.35,10.35,0,0,1,10.3,10.41v.33H.13ZM186.92,84.06v.26a10.35,10.35,0,0,1-10.3,10.4H10.44A10.36,10.36,0,0,1,.13,84.32v-.26Z"/><path class="cls-3" d="M129.41,47.25A26.1,26.1,0,1,0,155.5,20.91,26.21,26.21,0,0,0,129.41,47.25ZM5,47.25a26.1,26.1,0,1,0,26.1-26.34A26.22,26.22,0,0,0,5,47.25ZM186.92,79.08H58.26a33.54,33.54,0,0,0,6.83-6.93L78.2,55.27l5.72,7.3L90.29,54l-5.57-7.15L98.06,29.69c4.24-5.45-3.86-11.86-8.1-6.41L78.17,38.47l-12-15.39c-4.25-5.44-12.33,1-8.09,6.42L71.65,46.87,57,65.75c-5.21,6.7-10.41,12.85-20.72,13.33H.13V15.72h128a34,34,0,0,0-6.53,6.7L108.49,39.3,102.76,32l-6.37,8.55L102,47.7,88.62,64.88c-4.23,5.45,3.87,11.86,8.1,6.41l11.79-15.18,12,15.38c4.24,5.44,12.33-1,8.08-6.42L115,47.7l14.65-18.87C134.48,22.66,139.26,17,148,15.72h38.91Zm-47-31.83A15.62,15.62,0,1,1,155.5,63,15.69,15.69,0,0,1,139.88,47.25Zm-124.41,0A15.62,15.62,0,1,1,31.09,63,15.69,15.69,0,0,1,15.47,47.25"/></g></g></svg>