<svg xmlns="http://www.w3.org/2000/svg" viewBox="0 0 163.63 43.65"><defs><style>.cls-1,.cls-2{fill:#343a36;}.cls-1{fill-rule:evenodd;}</style></defs><title>icono_paypal</title><g id="Capa_2" data-name="Capa 2"><g id="Foreground"><path class="cls-1" d="M127.74,6.88a36.43,36.43,0,0,0-8.8,1.36,1.51,1.51,0,0,0-1.16,1.29l-.34,2.76a1.52,1.52,0,0,0,1.92,1.65,27.51,27.51,0,0,1,6.19-1c1.83-.06,3.24.14,4,.82a1.51,1.51,0,0,1-1.06,2.56c-8.79.21-14.66,2.3-15.92,8.2-1.91,10.69,9.83,10.4,14.51,5.74l-.17.73a1.53,1.53,0,0,0,1.49,1.85h5.47a1.52,1.52,0,0,0,1.48-1.2l3.47-15.83C140.34,8.56,133.76,6.78,127.74,6.88Zm.57,17.42c-.47,2.28-2.28,3.27-4.48,3.37-1.91.1-3.63-1.59-2.39-3.56,1-1.69,3.63-2.08,5.25-2.08h.24a1.52,1.52,0,0,1,1.48,1.84C128.38,24,128.35,24.16,128.31,24.3Z"/><path class="cls-1" d="M146.16.14l-6.68,30.75A1.59,1.59,0,0,0,141,32.82h5.47a1.6,1.6,0,0,0,1.56-1.25l6.49-29.49A1.6,1.6,0,0,0,153,.14Z"/><path class="cls-1" d="M106.07.25H91.55a1.8,1.8,0,0,0-1.76,1.41l-6.29,29a1.8,1.8,0,0,0,1.76,2.19h5.59a1.8,1.8,0,0,0,1.76-1.41l1.77-8A1.79,1.79,0,0,1,96.14,22h5.15a13.1,13.1,0,0,0,13.3-10.7C116.21,3.71,110.67.25,106.07.25Zm-.28,11.08a6,6,0,0,1-5.46,4.46H98.26a1.8,1.8,0,0,1-1.76-2.18L97.64,8.3A1.8,1.8,0,0,1,99.4,6.88h3.14C104.93,6.88,106.36,8.86,105.79,11.33Z"/><path class="cls-1" d="M44.08,6.88a34.21,34.21,0,0,0-8.55,1.34,1.59,1.59,0,0,0-1.2,1.35L34,12.15a1.6,1.6,0,0,0,2,1.74,26.27,26.27,0,0,1,5.89-1,9,9,0,0,1,3,.3,1.6,1.6,0,0,1-.5,3.1c-8.42.27-14,2.39-15.26,8.18C27.3,35.19,38.9,34.9,43.42,30.24l-.14.64a1.6,1.6,0,0,0,1.56,1.94h5.31a1.6,1.6,0,0,0,1.56-1.26l3.4-15.77C56.62,8.56,50,6.78,44.08,6.88Zm.66,17.42c-.47,2.28-2.35,3.27-4.52,3.37-1.89.1-3.49-1.59-2.26-3.56C38.9,22.42,41.54,22,43.05,22h.18a1.58,1.58,0,0,1,1.58,1.83C44.78,24,44.76,24.15,44.74,24.3Z"/><path class="cls-1" d="M58.85,7.35h7.38a1.31,1.31,0,0,1,1.31,1.19l.89,9.72a1.32,1.32,0,0,0,2.46.52L76.83,8A1.34,1.34,0,0,1,78,7.35h5.84A1.31,1.31,0,0,1,85,9.3L66.06,43a1.32,1.32,0,0,1-1.15.67H58.38a1.31,1.31,0,0,1-1.13-2l4.88-8.3a1.3,1.3,0,0,0,.17-.84L59,8.38l-.14-1Z"/><path class="cls-1" d="M22.74.25H8a1.52,1.52,0,0,0-1.49,1.2L0,31a1.52,1.52,0,0,0,1.49,1.85H7.8a1.53,1.53,0,0,0,1.49-1.21l1.79-8.38A1.52,1.52,0,0,1,12.57,22h5.48a13.09,13.09,0,0,0,13.23-10.7C32.91,3.71,27.44.25,22.74.25Zm-.28,11.08a5.87,5.87,0,0,1-5.37,4.46h-2.5a1.52,1.52,0,0,1-1.49-1.86l1.32-5.86a1.53,1.53,0,0,1,1.49-1.19h3.38A3.3,3.3,0,0,1,22.46,11.33Z"/><path class="cls-2" d="M156.86,4.37V.52h-1.44V0h3.47V.52h-1.45V4.37Z"/><path class="cls-2" d="M159.46,4.37V0h.86l1,3.09c.1.29.16.5.21.65l.23-.7,1-3h.78V4.37h-.56V.71L161.8,4.37h-.52L160,.65V4.37Z"/></g></g></svg>